<?xml version="1.0" standalone="no"?>
<!DOCTYPE svg PUBLIC "-//W3C//DTD SVG 1.1//EN" "http://www.w3.org/Graphics/SVG/1.1/DTD/svg11.dtd" >
<svg xmlns="http://www.w3.org/2000/svg">
<metadata></metadata>
<defs>
<font id="sophisto_bregular" horiz-adv-x="1044" >
<font-face units-per-em="2048" ascent="1638" descent="-410" />
<missing-glyph horiz-adv-x="397" />
<glyph horiz-adv-x="2048" />
<glyph horiz-adv-x="2048" />
<glyph unicode="&#xd;" horiz-adv-x="2048" />
<glyph unicode=" "  horiz-adv-x="397" />
<glyph unicode="&#x09;" horiz-adv-x="397" />
<glyph unicode="&#xa0;" horiz-adv-x="397" />
<glyph unicode="!" horiz-adv-x="481" d="M139 84q0 46 25 72t76 26t76.5 -26t25.5 -72t-25.5 -73t-76.5 -27t-76 27t-25 73zM158 688v623h170v-623l-23 -379h-125z" />
<glyph unicode="&#x22;" horiz-adv-x="677" d="M115 1327h168l-37 -444h-94zM397 1327h166l-35 -444h-96z" />
<glyph unicode="#" d="M59 309l19 111h141l64 315h-133l18 109h139l64 319h127l-64 -319h287l63 319h129l-65 -319h139l-20 -109h-142l-63 -315h135l-20 -111h-136l-63 -309h-129l63 309h-286l-66 -309h-127l66 309h-140zM346 420h287l63 315h-286z" />
<glyph unicode="$" d="M133 92l21 137l155 -67q66 -27 127 -27h137q65 0 110.5 36.5t45.5 96.5v101q0 27 -16.5 49.5t-34.5 32.5l-442 249q-38 22 -64.5 70.5t-26.5 108.5v102q0 108 79.5 182t189.5 74h28v244h142v-244h18q67 0 148 -33l137 -59l-19 -137l-159 67q-66 27 -125 27h-119 q-70 0 -111 -35t-41 -106v-56q0 -27 17.5 -48t36.5 -32l444 -254q37 -22 62.5 -69t25.5 -107v-137q0 -108 -79 -183t-189 -75h-47v-258h-142v258h-22q-67 0 -148 33z" />
<glyph unicode="%" horiz-adv-x="1316" d="M100 862v273q0 78 47 135t121 57h142q74 0 121 -57t47 -135v-187q0 -49 -23 -94l-61 -123q-16 -32 -49.5 -47.5t-65.5 -15.5h-111q-74 0 -121 58t-47 136zM229 856q0 -30 22.5 -56t47.5 -26h51q9 0 20 7t15 16l51 104q10 20 10 49l-2 187q0 31 -20 57.5t-45 26.5h-80 q-25 0 -47.5 -26.5t-22.5 -57.5v-281zM279 0l628 1311h133l-628 -1311h-133zM739 178v184q0 52 23 97l61 123q16 32 48.5 46.5t64.5 14.5h113q74 0 121 -57t47 -135v-273q0 -78 -47 -136t-121 -58h-144q-74 0 -120 58t-46 136zM870 174q0 -31 20.5 -57.5t45.5 -26.5h80 q25 0 47 26.5t22 57.5v281q0 30 -22 56t-47 26h-49q-10 0 -21.5 -6t-15.5 -15l-49 -106q-11 -22 -11 -50v-186z" />
<glyph unicode="&#x26;" horiz-adv-x="1124" d="M88 262v57q0 128 51 201l119 170l-98 184q-47 86 -47 197t79 183.5t193 72.5h107q63 0 124 -14l154 -39l-18 -129l-183 41q-62 12 -98 12h-31q-71 0 -116 -40t-45 -109q0 -43 26 -103l105 -207h282l13 15v147l165 55v-202l13 -15h164v-127h-164l-13 -12v-383 q0 -49 22.5 -77.5t68.5 -28.5h6l73 8l13 -123q-61 -12 -88 -12h-21q-121 0 -178 79q-69 -79 -188 -79h-203q-119 0 -203 81.5t-84 196.5zM254 264q0 -70 46 -111.5t112 -41.5h129q119 0 164 96v393l-13 12h-299l-110 -166q-29 -45 -29 -112v-70z" />
<glyph unicode="'" horiz-adv-x="399" d="M115 1327h170l-35 -444h-98z" />
<glyph unicode="(" horiz-adv-x="641" d="M129 610q0 136 25 280.5t82 282t135 205.5q8 7 56.5 35.5t92.5 52.5l45 25l41 -61l-153 -132q-64 -55 -99 -279t-35 -407t35 -407t99 -279l153 -131l-41 -63q-176 98 -194 114q-79 68 -135.5 204.5t-81.5 280t-25 279.5z" />
<glyph unicode=")" horiz-adv-x="643" d="M35 -203l155 131q44 37 76.5 172t45 270t12.5 242q0 106 -13 241t-45.5 269t-75.5 172l-155 133l49 64q172 -97 190 -113q78 -68 134.5 -205.5t81 -282t24.5 -280.5t-24.5 -279.5t-81 -280t-134.5 -204.5q-8 -7 -55.5 -35.5t-90.5 -53.5l-44 -25z" />
<glyph unicode="*" horiz-adv-x="788" d="M61 1014l48 147l241 -114l-35 264h158l-35 -264l242 114l47 -147l-262 -49l184 -195l-129 -92l-127 235l-125 -235l-129 92l185 195z" />
<glyph unicode="+" horiz-adv-x="837" d="M72 537v133h282v301h131v-301h281v-133h-281v-301h-131v301h-282z" />
<glyph unicode="," horiz-adv-x="428" d="M78 -227l90 444h178l-178 -444h-90z" />
<glyph unicode="-" horiz-adv-x="593" d="M82 537v133h430v-133h-430z" />
<glyph unicode="." horiz-adv-x="428" d="M106 90q0 49 27.5 77t81.5 28t81.5 -28t27.5 -77t-27.5 -77.5t-81.5 -28.5t-81.5 28.5t-27.5 77.5z" />
<glyph unicode="/" horiz-adv-x="712" d="M12 -14l537 1341h151l-534 -1341h-154z" />
<glyph unicode="0" d="M125 360v590q0 172 102.5 274.5t268.5 102.5h55q166 0 268.5 -102.5t102.5 -274.5v-590q0 -172 -102.5 -274t-268.5 -102h-55q-166 0 -268.5 102t-102.5 274zM295 352q0 -63 18 -109t49.5 -71t68 -37t77.5 -12h27q42 0 78.5 12t68.5 37t51 71.5t19 108.5v606 q0 120 -62 175t-151 55h-27q-41 0 -78 -12t-69 -37.5t-51 -72t-19 -108.5v-606z" />
<glyph unicode="1" d="M127 1225l213 75q74 27 135 27h164v-1175l12 -13h264v-139h-761v139h303l12 13v1038q-50 -4 -74 -12l-248 -80z" />
<glyph unicode="2" d="M141 1233l156 67q62 27 125 27h223q115 0 192.5 -76.5t77.5 -191.5v-33q0 -60 -20.5 -117.5t-56.5 -93.5l-490 -485q-29 -29 -29 -94v-84l13 -13h573v-139h-758v231q0 131 64 195l491 492q43 43 43 114v27q0 55 -36.5 92t-92.5 37h-172q-44 0 -94 -21l-188 -75z" />
<glyph unicode="3" d="M106 80l19 139l172 -69q66 -27 117 -27h178q70 0 114 36.5t44 100.5v74q0 70 -27 112l-107 162h-317v137h305l101 201q22 51 22 103q0 65 -44.5 102t-115.5 37h-137q-43 0 -92 -19l-197 -77l-18 139l160 69q64 27 114 27h228q114 0 193 -72.5t79 -183.5q0 -112 -45 -197 l-94 -184l114 -170q50 -72 50 -201v-57q0 -115 -84 -196.5t-203 -81.5h-234q-77 0 -149 32z" />
<glyph unicode="4" d="M68 326v108l292 688q79 189 244 189h211v-140h-184q-73 0 -109 -79l-270 -627h407l13 12v383h166v-383l12 -12h141v-139h-141l-12 -15v-311h-166v311l-13 15h-591z" />
<glyph unicode="5" d="M119 80l20 139l172 -69q66 -27 117 -27h158q69 0 114 46t45 122v155q0 71 -28 115l-68 105h-487l-23 22l58 623h671v-140h-516l-33 -366h433l114 -170q49 -70 49 -203v-156q0 -116 -84 -204t-202 -88h-215q-76 0 -148 32z" />
<glyph unicode="6" d="M137 360v697q0 117 76.5 193.5t192.5 76.5h178q63 0 141 -24l154 -54l-17 -139l-188 59q-67 19 -111 19h-129q-55 0 -91 -37.5t-36 -93.5v-252l12 -10l345 26q120 9 194 -56t74 -185v-220q0 -172 -102.5 -274t-268.5 -102h-53q-166 0 -268.5 102t-102.5 274zM307 352 q0 -62 18.5 -108.5t50.5 -71.5t68 -37t78 -12h17q42 0 79.5 12t70.5 37t53 71.5t20 108.5v230q0 50 -31.5 79.5t-79.5 24.5l-334 -29l-10 -14v-291z" />
<glyph unicode="7" d="M94 1171v140h803v-240q0 -132 -47 -194l-295 -392q-10 -14 -17.5 -48.5t-7.5 -61.5v-375h-170v360q0 131 48 195l297 393q9 13 15.5 44t6.5 55v112l-12 12h-621z" />
<glyph unicode="8" d="M90 262v31q0 67 15.5 115.5t46.5 101.5l96 166l-78 196q-43 107 -43 193q0 112 75.5 187t188.5 75h264q113 0 189 -75t76 -187q0 -86 -43 -193l-78 -196l96 -166q31 -53 46 -101.5t15 -115.5v-31q0 -115 -81.5 -196.5t-200.5 -81.5h-301q-119 0 -201 81.5t-82 196.5z M258 254q0 -62 43 -96.5t109 -34.5h227q66 0 108.5 34.5t42.5 96.5v51q0 60 -45 137l-90 164h-260l-90 -164q-45 -77 -45 -137v-51zM297 1040q0 -41 20 -98l80 -203h252l80 203q21 60 21 98q0 66 -41.5 107t-110.5 41h-152q-68 0 -108.5 -40.5t-40.5 -107.5z" />
<glyph unicode="9" d="M115 731v303q0 119 77 206t191 87h256q114 0 191 -87t77 -206v-674q0 -172 -102 -274t-268 -102h-68q-63 0 -147 26l-156 51l18 142l189 -62q63 -18 110 -18h37q42 0 78.5 12t68.5 37t51 71.5t19 108.5v156l-12 10l-342 -26q-120 -9 -194 55t-74 184zM285 727 q0 -52 38 -77.5t89 -20.5l317 26l8 13v368q0 57 -39.5 104.5t-93.5 47.5h-186q-54 0 -93.5 -47.5t-39.5 -104.5v-309z" />
<glyph unicode=":" horiz-adv-x="477" d="M129 90q0 49 27.5 77t81.5 28t81 -28t27 -77t-27 -77.5t-81 -28.5t-81.5 28.5t-27.5 77.5zM129 758q0 49 27.5 77.5t81.5 28.5t81 -28.5t27 -77.5t-27 -77t-81 -28t-81.5 28t-27.5 77z" />
<glyph unicode=";" horiz-adv-x="477" d="M84 -227l90 444h178l-178 -444h-90zM139 758q0 49 27.5 77.5t81.5 28.5t81 -28.5t27 -77.5t-27 -77t-81 -28t-81.5 28t-27.5 77z" />
<glyph unicode="&#x3c;" horiz-adv-x="643" d="M82 508v80l379 383l96 -99l-321 -321l321 -328l-96 -96z" />
<glyph unicode="=" horiz-adv-x="794" d="M82 379v131h631v-131h-631zM82 696v133h631v-133h-631z" />
<glyph unicode="&#x3e;" horiz-adv-x="643" d="M86 223l324 328l-324 321l96 99l379 -383v-80l-379 -381z" />
<glyph unicode="?" horiz-adv-x="804" d="M31 1219l162 67q59 25 116 25h176q115 0 194 -79t79 -192q0 -90 -45 -166l-140 -239l-184 -66l-12 -14l-17 -250h-133l-16 240v106l14 17l234 80l108 196q23 45 23 100q0 60 -46 96t-108 36h-114q-45 0 -86 -17l-187 -74zM190 84q0 46 25 72t76 26t77.5 -26t26.5 -72 t-26.5 -73t-77.5 -27t-76 27t-25 73z" />
<glyph unicode="@" horiz-adv-x="1179" d="M131 78v604q0 134 86.5 228t216.5 94h342q118 0 194.5 -78.5t76.5 -194.5v-731h-91l-41 70l-61 -37q-86 -49 -160 -49q-78 0 -129 22q-61 29 -94 89.5t-33 140.5v161q0 108 58.5 170t167.5 62h210l13 12v80q0 68 -31 110.5t-100 42.5h-301q-65 0 -115.5 -58t-50.5 -122 v-637q0 -118 70.5 -198t164.5 -80h119q66 0 117 14l125 37l18 -125l-106 -33q-77 -22 -133 -22h-152q-165 0 -273 125.5t-108 302.5zM600 221q0 -53 32.5 -78.5t76.5 -25.5q63 0 129 47l49 33v295l-10 14h-177q-100 0 -100 -92v-193z" />
<glyph unicode="A" horiz-adv-x="1024" d="M31 0l340 1294l20 17h244l20 -17l338 -1294h-168l-84 322l-14 14h-428l-14 -14l-84 -322h-170zM326 483l10 -14h354l10 14l-176 684h-24z" />
<glyph unicode="B" horiz-adv-x="1050" d="M143 0v1311h512q115 0 191 -68.5t76 -179.5q0 -105 -43 -193l-103 -202l131 -207q35 -53 52.5 -99t17.5 -110q0 -110 -80 -181t-195 -71h-559zM313 152l13 -13h338q58 0 98.5 32.5t40.5 92.5q0 48 -49 131l-123 211h-305l-13 -14v-440zM313 754l13 -15h303l98 199 q21 48 21 106q0 63 -37 95t-99 32h-286l-13 -12v-405z" />
<glyph unicode="C" horiz-adv-x="999" d="M123 412v645q0 117 76 193.5t192 76.5h287q116 0 192 -76.5t76 -193.5v-66h-166v68q0 56 -36 92.5t-91 36.5h-233q-55 0 -91 -36.5t-36 -92.5v-653q0 -119 64 -201t151 -82h113q41 0 88 18l196 78l19 -139l-160 -70q-61 -26 -117 -26h-153q-161 0 -266 125.5t-105 302.5z " />
<glyph unicode="D" horiz-adv-x="1093" d="M143 0v1311h559q116 0 192.5 -77t76.5 -194v-612q0 -177 -105 -302.5t-266 -125.5h-457zM313 152l13 -13h256q84 0 151.5 79.5t67.5 203.5v620q0 56 -36.5 92.5t-92.5 36.5h-346l-13 -12v-1007z" />
<glyph unicode="E" horiz-adv-x="978" d="M143 0v1311h754v-140h-571l-13 -12v-389l13 -14h450v-138h-450l-13 -14v-452l13 -13h571v-139h-754z" />
<glyph unicode="F" horiz-adv-x="935" d="M143 0v1311h754v-140h-571l-13 -12v-403l13 -15h448v-137h-448l-13 -14v-590h-170z" />
<glyph unicode="G" horiz-adv-x="1081" d="M123 397v660q0 117 76 193.5t192 76.5h268q59 0 115 -27l146 -69l-21 -139l-180 77q-42 19 -84 19h-209q-56 0 -94.5 -38t-38.5 -93v-666q0 -125 58 -196.5t141 -71.5h147q35 0 78 16l63 25v434l-12 14h-195v138h377v-666l-172 -74q-61 -26 -116 -26h-183 q-161 0 -258.5 118t-97.5 295z" />
<glyph unicode="H" horiz-adv-x="1122" d="M143 0v1311h170v-555l13 -15h471l12 15v555h170v-1311h-170v590l-12 14h-471l-13 -14v-590h-170z" />
<glyph unicode="I" horiz-adv-x="761" d="M74 0v137h211l12 13v1013l-12 13h-211v135h614v-135h-209l-12 -13v-1013l12 -13h209v-137h-614z" />
<glyph unicode="J" horiz-adv-x="946" d="M39 80l18 139l181 -78q40 -18 84 -18h114q83 0 142 71.5t59 196.5v766l-12 14h-295v140h477v-914q0 -178 -96.5 -295.5t-257.5 -117.5h-152q-63 0 -117 26z" />
<glyph unicode="K" horiz-adv-x="1069" d="M143 0v1311h170v-500l13 -14h288l211 514h179l-246 -584l129 -209q28 -46 38 -63.5t23 -59.5t13 -86v-309h-170v299q0 63 -48 143l-129 220h-288l-13 -15v-647h-170z" />
<glyph unicode="L" horiz-adv-x="950" d="M143 0v1311h170v-1159l13 -13h573v-139h-756z" />
<glyph unicode="M" horiz-adv-x="1341" d="M143 0v1311h224l16 -13l287 -878l288 878l17 13h223v-1311h-156v1106l-286 -864l-19 -17h-133l-18 17l-287 868v-1110h-156z" />
<glyph unicode="N" horiz-adv-x="1118" d="M143 0v1311h201l23 -15l458 -1073v1088h150v-1311h-201l-22 14l-457 1080v-1094h-152z" />
<glyph unicode="O" horiz-adv-x="1075" d="M123 412v645q0 117 76 193.5t192 76.5h293q116 0 192 -76.5t76 -193.5v-645q0 -177 -104.5 -302.5t-265.5 -125.5h-88q-161 0 -266 125.5t-105 302.5zM293 403q0 -124 66 -202t149 -78h57q84 0 150.5 78t66.5 202v656q0 56 -36 92.5t-91 36.5h-235q-55 0 -91 -36.5 t-36 -92.5v-656z" />
<glyph unicode="P" horiz-adv-x="1034" d="M143 0v1311h541q116 0 197.5 -70t81.5 -180v-35q0 -102 -52 -197l-170 -331l-24 -17h-391l-13 -14v-467h-170zM313 633l13 -15h301l137 287q27 62 27 105v28q0 66 -45 99.5t-115 33.5h-305l-13 -12v-526z" />
<glyph unicode="Q" horiz-adv-x="1075" d="M123 412v645q0 117 76 193.5t192 76.5h293q116 0 192 -76.5t76 -193.5v-645q0 -155 -82.5 -273t-214.5 -147l117 -115q52 -51 116.5 -83t117.5 -32h71v-141h-63q-197 0 -332 135l-231 230q-144 18 -236 140t-92 286zM293 403q0 -124 66 -202t149 -78h57q84 0 150.5 78 t66.5 202v656q0 56 -36 92.5t-91 36.5h-235q-55 0 -91 -36.5t-36 -92.5v-656z" />
<glyph unicode="R" horiz-adv-x="1064" d="M143 0v1311h506q115 0 195 -69t80 -179q0 -113 -45 -195l-111 -204l129 -209q25 -39 37.5 -62.5t24.5 -64t12 -84.5v-244h-170v229q0 70 -47 148l-133 223h-295l-13 -14v-586h-170zM313 750l13 -15h295l110 203q21 40 21 100q0 64 -42.5 98.5t-113.5 34.5h-270l-13 -12 v-409z" />
<glyph unicode="S" horiz-adv-x="997" d="M92 78l21 141l161 -67q74 -29 129 -29h166q72 0 115 37.5t43 109.5v113q0 59 -39 82l-495 293q-38 24 -65.5 74.5t-27.5 111.5v115q0 112 81 190t194 78h209q85 0 155 -33l142 -61l-21 -141l-162 67q-74 29 -129 29h-145q-71 0 -112.5 -38.5t-41.5 -111.5v-65 q0 -59 39 -82l498 -293q38 -23 64 -74t26 -112v-160q0 -112 -80.5 -190t-193.5 -78h-234q-88 0 -156 32z" />
<glyph unicode="T" horiz-adv-x="937" d="M33 1171v140h872v-140h-338l-12 -12v-1159h-170v1159l-12 12h-340z" />
<glyph unicode="U" horiz-adv-x="1095" d="M133 412v899h170v-905q0 -124 67 -203.5t150 -79.5h55q83 0 150.5 79.5t67.5 203.5v905h170v-899q0 -177 -105 -302.5t-266 -125.5h-88q-161 0 -266 125.5t-105 302.5z" />
<glyph unicode="V" horiz-adv-x="1009" d="M29 1311h170l297 -1159h18l299 1159h168l-340 -1295l-20 -16h-234l-20 16z" />
<glyph unicode="W" horiz-adv-x="1388" d="M68 1311h172l145 -1135h18l175 895l20 23h193l20 -23l174 -895h19l145 1135h172l-193 -1295l-14 -16h-225l-15 16l-174 910h-12l-174 -910l-14 -16h-226l-14 16z" />
<glyph unicode="X" horiz-adv-x="960" d="M25 0l264 608q7 16 24.5 33t30.5 26l14 9q-53 32 -69 69l-246 566h180l199 -486q5 -13 19 -28t25 -24l11 -9q46 34 58 61l198 486h180l-245 -566q-7 -17 -24 -34.5t-30 -26.5l-14 -8q52 -33 68 -68l268 -608h-180l-219 528q-4 12 -18.5 27.5t-26.5 24.5l-13 10 q-45 -33 -57 -62l-217 -528h-180z" />
<glyph unicode="Y" horiz-adv-x="970" d="M4 1311h182l240 -566q7 -17 26 -26.5t35 -9.5t33.5 10.5t24.5 28.5l239 563h183l-273 -625q-15 -35 -51 -67t-74 -46v-573h-170v575q-36 14 -69.5 45t-48.5 66z" />
<glyph unicode="Z" horiz-adv-x="948" d="M72 1171v140h800v-166q0 -53 -30 -98l-580 -838q-10 -17 -10 -35v-35h627v-139h-803v168q0 53 30 98l580 840q10 17 10 33v32h-624z" />
<glyph unicode="[" horiz-adv-x="589" d="M143 -260v1735h426v-72l-247 -49l-11 -13v-1468l13 -12l245 -47v-74h-426z" />
<glyph unicode="\" horiz-adv-x="712" d="M12 1327h152l536 -1341h-151z" />
<glyph unicode="]" horiz-adv-x="589" d="M20 -186l246 47l13 12v1468l-11 13l-248 49v72h426v-1735h-426v74z" />
<glyph unicode="^" horiz-adv-x="876" d="M18 686l377 584h86l377 -584h-145l-275 401l-274 -401h-146z" />
<glyph unicode="_" horiz-adv-x="800" d="M-4 -47h809v-141h-809v141z" />
<glyph unicode="`" horiz-adv-x="845" d="M178 1174v153l443 -182v-96z" />
<glyph unicode="a" horiz-adv-x="915" d="M96 231v86q0 109 56 172.5t163 63.5h291l12 12v133q0 47 -28 74t-76 27h-55q-44 0 -88 -13l-189 -57l-20 125l162 55q52 19 131 19h86q118 0 180.5 -64t62.5 -182v-682h-90l-43 55l-133 -41q-99 -30 -162 -30q-129 0 -194.5 64t-65.5 183zM262 215q0 -47 32 -74.5 t77 -27.5q59 0 141 28l96 35l10 17v223l-12 12h-262q-34 0 -58 -25.5t-24 -64.5v-123z" />
<glyph unicode="b" horiz-adv-x="942" d="M135 0v1329l166 27v-473l12 -13l93 29q96 29 159 29q125 0 192.5 -67t67.5 -185v-438q0 -118 -67.5 -186t-192.5 -68q-65 0 -164 30l-131 41l-49 -55h-86zM301 193l12 -17l97 -35q82 -28 139 -28q44 0 77 33t33 83v451q0 50 -33 84.5t-77 34.5q-60 0 -139 -27l-97 -35 l-12 -16v-528z" />
<glyph unicode="c" horiz-adv-x="847" d="M119 309v367q0 117 67 184.5t185 67.5h108q71 0 123 -19l164 -61l-21 -127l-188 65q-33 13 -90 13h-68q-51 0 -82.5 -32t-31.5 -83v-391q0 -78 39.5 -129t97.5 -51h45q60 0 90 12l188 65l21 -127l-164 -61q-50 -18 -123 -18h-80q-125 0 -202.5 88t-77.5 237z" />
<glyph unicode="d" horiz-adv-x="944" d="M119 238v438q0 118 67.5 185t192.5 67q64 0 160 -29l92 -29l12 13v446l166 27v-1356h-86l-49 55l-133 -41q-99 -30 -162 -30q-125 0 -192.5 68t-67.5 186zM285 229q0 -50 32 -83t76 -33q60 0 142 28l96 35l12 17v528l-12 16l-96 35q-79 27 -142 27q-44 0 -76 -34.5 t-32 -84.5v-451z" />
<glyph unicode="e" horiz-adv-x="919" d="M119 313v346q0 118 74 193.5t192 75.5h154q118 0 192 -75.5t74 -193.5v-258h-508l-12 -12v-96q0 -78 39.5 -129t97.5 -51h45q41 0 82 12l194 63l21 -127l-162 -57q-55 -20 -129 -20h-74q-124 0 -202 90t-78 239zM285 535l12 -13h330l12 13v133q0 56 -36 93.5t-91 37.5 h-100q-55 0 -91 -37.5t-36 -93.5v-133z" />
<glyph unicode="f" horiz-adv-x="679" d="M14 782v129h148l12 13v172q0 117 67 184.5t185 67.5h39q61 0 135 -17l125 -26l-18 -129l-158 34q-47 9 -88 9h-12q-51 0 -80 -30t-29 -81v-184l12 -13h273v-129h-273l-12 -14v-768h-166v768l-12 14h-148z" />
<glyph unicode="g" horiz-adv-x="942" d="M119 238v438q0 118 67.5 185t192.5 67q66 0 162 -29l133 -43l49 55h86v-958q0 -149 -79 -237.5t-204 -88.5h-69q-71 0 -129 21l-164 57l20 127l189 -63q43 -13 90 -13h39q63 0 102 48.5t39 134.5v92l-12 10l-92 -27q-103 -30 -160 -30q-125 0 -192.5 68t-67.5 186z M285 231q0 -50 32 -84t76 -34q60 0 142 28l96 35l12 17v526l-12 16l-96 35q-85 29 -142 29q-44 0 -76 -34.5t-32 -84.5v-449z" />
<glyph unicode="h" horiz-adv-x="956" d="M135 0v1329l166 27v-473l12 -13l93 29q96 29 159 29q125 0 192.5 -67t67.5 -185v-676h-166v678q0 50 -35 85.5t-79 35.5q-50 0 -135 -29l-97 -33l-12 -16v-721h-166z" />
<glyph unicode="i" horiz-adv-x="458" d="M127 1200q0 42 29.5 70t72.5 28t73 -28t30 -70t-30 -70t-73 -28t-72.5 28t-29.5 70zM145 0v911h166v-911h-166z" />
<glyph unicode="j" horiz-adv-x="481" d="M-164 -319l21 129l100 -35q55 -19 88 -19h4q56 0 87.5 30t31.5 85v1040h166v-1030q0 -118 -66 -186t-184 -68h-37q-28 0 -72.5 8.5t-70.5 18.5zM150 1200q0 42 29.5 70t72.5 28t72.5 -28t29.5 -70t-29.5 -70t-72.5 -28t-72.5 28t-29.5 70z" />
<glyph unicode="k" horiz-adv-x="892" d="M135 0v1329l166 27v-783l12 -14h154q10 46 49 113l148 239h180l-203 -331q-29 -49 -29 -91q0 -41 29 -90l244 -399h-180l-189 307q-40 66 -51 123h-152l-12 -12v-418h-166z" />
<glyph unicode="l" horiz-adv-x="456" d="M145 0v1329l166 27v-1356h-166z" />
<glyph unicode="m" horiz-adv-x="1406" d="M135 0v911h86l49 -55l133 45q79 27 144 27q115 0 186 -78l154 51q79 27 141 27q123 0 185.5 -66t62.5 -186v-676h-166v688q0 49 -29.5 80t-66.5 31q-42 0 -121 -27l-92 -33l-13 -16v-723h-165v688q0 49 -28 80t-65 31q-50 0 -120 -27l-97 -37l-12 -16v-719h-166z" />
<glyph unicode="n" horiz-adv-x="956" d="M135 0v911h86l49 -53l133 41q96 29 162 29q125 0 192.5 -67t67.5 -185v-676h-166v680q0 50 -33 84.5t-77 34.5q-54 0 -139 -29l-97 -33l-12 -16v-721h-166z" />
<glyph unicode="o" horiz-adv-x="923" d="M119 309v350q0 118 74 193.5t192 75.5h154q118 0 192 -75.5t74 -193.5v-350q0 -149 -78 -237t-203 -88h-125q-125 0 -202.5 88t-77.5 237zM285 293q0 -83 39.5 -131.5t97.5 -48.5h78q58 0 98.5 48.5t40.5 131.5v375q0 56 -36 93.5t-91 37.5h-100q-55 0 -91 -37.5 t-36 -93.5v-375z" />
<glyph unicode="p" horiz-adv-x="944" d="M135 -387v1298h86l49 -55l136 43q96 29 159 29q125 0 192.5 -67t67.5 -185v-438q0 -118 -67.5 -186t-192.5 -68q-56 0 -159 30l-93 27l-12 -10v-391zM301 193l12 -17l97 -35q82 -28 139 -28q44 0 77 34t33 84v449q0 50 -33 84.5t-77 34.5q-54 0 -139 -29l-97 -35l-12 -16 v-526z" />
<glyph unicode="q" horiz-adv-x="944" d="M119 238v438q0 118 67.5 185t192.5 67q64 0 160 -29l135 -43l49 55h86v-1271l-166 -27v418l-12 10l-92 -27q-103 -30 -160 -30q-125 0 -192.5 68t-67.5 186zM285 231q0 -50 32 -84t76 -34q60 0 142 28l96 35l12 17v526l-12 16l-96 35q-85 29 -142 29q-44 0 -76 -34.5 t-32 -84.5v-449z" />
<glyph unicode="r" horiz-adv-x="800" d="M135 0v911h88l49 -55l111 41q88 31 147 31q222 0 240 -217l2 -23l-158 -35l-6 49q-4 42 -31 69.5t-63 27.5q-56 0 -121 -29l-80 -35l-12 -16v-719h-166z" />
<glyph unicode="s" horiz-adv-x="841" d="M96 61l23 132l145 -52q82 -28 133 -28h39q64 0 107 25t43 81v27q0 48 -54 76l-337 170q-91 46 -91 163v37q0 110 74.5 173t190.5 63h82q67 0 155 -31l127 -45l-22 -133l-148 51q-85 29 -137 29h-23q-139 0 -139 -105v-20q0 -45 60 -76l325 -164q47 -23 73 -63t26 -86v-60 q0 -110 -75 -175.5t-190 -65.5h-102q-69 0 -160 32z" />
<glyph unicode="t" horiz-adv-x="696" d="M14 782v129h150l12 15v174l166 74v-248l12 -15h271v-129h-271l-12 -12v-545q0 -112 98 -112h9q45 0 88 12l100 29l20 -119l-69 -27q-66 -24 -133 -24h-47q-116 0 -174 67t-58 187v532l-12 12h-150z" />
<glyph unicode="u" horiz-adv-x="954" d="M131 238v673h166v-680q0 -50 33.5 -84t77.5 -34q55 0 137 28l96 33l12 16v721h166v-911h-86l-49 53l-129 -39q-99 -30 -164 -30q-125 0 -192.5 68t-67.5 186z" />
<glyph unicode="v" horiz-adv-x="829" d="M25 911h163l222 -759h10l219 759h166l-283 -895l-20 -16h-174l-21 16z" />
<glyph unicode="w" horiz-adv-x="1177" d="M61 911h154l119 -755h8l186 688h121l187 -688h8l119 755h153l-164 -895l-14 -16h-178l-15 16l-157 594l-158 -594l-14 -16h-176l-15 16z" />
<glyph unicode="x" horiz-adv-x="802" d="M35 0l205 406q18 34 59 67q-12 9 -31 29.5t-28 38.5l-201 370h174l147 -309q5 -12 15.5 -24t18.5 -18l7 -5q25 20 37 47l152 309h172l-199 -370q-9 -18 -28 -38.5t-31 -29.5q41 -33 59 -67l205 -406h-174l-154 342q-5 13 -15 26t-17 20l-7 7q-29 -24 -41 -53l-151 -342 h-174z" />
<glyph unicode="y" horiz-adv-x="843" d="M-18 -293l45 125l65 -29q69 -30 123 -30q88 0 107 67l49 160l-49 6q-11 0 -15 17l-284 888h172l219 -757h22l226 757h165l-348 -1089q-31 -97 -89 -142t-152 -45q-133 0 -232 58z" />
<glyph unicode="z" horiz-adv-x="811" d="M68 0v121l467 649v12h-443v129h645v-120l-465 -650v-12h471v-129h-675z" />
<glyph unicode="{" horiz-adv-x="628" d="M82 584v47l123 112v600l403 154v-70l-227 -172l-8 -18v-502l-142 -127l142 -129v-502l8 -18l227 -172v-72l-403 156v600z" />
<glyph unicode="|" horiz-adv-x="534" d="M184 -240v1725h166v-1725h-166z" />
<glyph unicode="}" horiz-adv-x="628" d="M20 -213l228 172l10 18v502l139 129l-139 127v502l-10 18l-228 172v70l406 -154v-600l121 -112v-47l-121 -113v-600l-406 -156v72z" />
<glyph unicode="~" horiz-adv-x="894" d="M74 528v52q0 103 51.5 167t134.5 64q48 0 106 -25t102 -55t90.5 -55t74.5 -25q32 0 52 28.5t20 70.5v38h118v-51q0 -103 -51.5 -167t-134.5 -64q-48 0 -106 25t-102 55t-90.5 55t-74.5 25q-32 0 -51.5 -27.5t-19.5 -69.5v-41h-119z" />
<glyph unicode="&#xa1;" horiz-adv-x="483" d="M139 883q0 46 26 72t77 26t76.5 -26t25.5 -72t-25.5 -73.5t-76.5 -27.5t-77 27.5t-26 73.5zM154 279l22 376h125l23 -376v-625h-170v625z" />
<glyph unicode="&#xa2;" d="M170 309v467q0 118 66 185t184 67h51v209h139v-209q82 -5 119 -18l164 -62l-19 -127l-188 66q-30 12 -90 12h-143q-52 0 -84.5 -30.5t-32.5 -80.5v-497q0 -78 40.5 -128t98.5 -50h121q60 0 90 12l188 65l19 -127l-164 -61q-30 -10 -119 -16v-219h-139v217h-27 q-120 0 -197 89t-77 236z" />
<glyph unicode="&#xa3;" d="M90 600v125h129v330q0 118 76 195t194 77h170q51 0 117 -24l162 -64l-18 -135l-197 72q-46 16 -88 16h-119q-54 0 -92.5 -39.5t-38.5 -91.5v-336h336v-125h-336v-321q0 -98 -33 -144h609v-135h-846v133h14q49 0 69.5 26t20.5 81v360h-129z" />
<glyph unicode="&#xa4;" d="M39 442l24 125h130v172h-152l25 125h127v193q0 117 76 193.5t192 76.5h233q55 0 119 -27l160 -69l-19 -139l-196 77q-49 19 -84 19h-185q-55 0 -91 -36t-36 -91v-197h455l-24 -125h-431v-172h404l-25 -125h-379v-194q0 -55 35.5 -90t91.5 -35h185q38 0 84 18l196 78 l19 -139l-160 -70q-61 -26 -119 -26h-233q-116 0 -192 76.5t-76 193.5v188h-154z" />
<glyph unicode="&#xa5;" horiz-adv-x="1048" d="M45 1311h184l238 -557q7 -17 25 -26t34 -9t32.5 9.5t23.5 27.5l237 555h185l-271 -617q-15 -34 -51 -66t-74 -46v-64l316 -47v-139l-316 47v-379h-170v379l-313 -47v139l313 47v66q-36 14 -70 45.5t-49 64.5z" />
<glyph unicode="&#xa6;" horiz-adv-x="540" d="M184 -240v768h172v-768h-172zM184 719v766h172v-766h-172z" />
<glyph unicode="&#xa7;" horiz-adv-x="870" d="M106 -258l23 131l147 -51q85 -29 132 -29h47q32 0 56 3.5t46.5 13t34.5 29t12 48.5v72q0 45 -53 72l-344 168q-90 46 -90 159v531q0 109 72.5 166t189.5 57h88q68 0 156 -31l127 -45l-23 -133l-147 51q-85 29 -138 29h-28q-67 0 -103.5 -18t-36.5 -72v-76 q0 -19 10.5 -33.5t21 -21t28.5 -14.5l332 -164q47 -23 72.5 -61.5t25.5 -84.5v-544q0 -109 -73.5 -169.5t-190.5 -60.5h-109q-65 0 -158 33zM274 367q0 -27 16.5 -42.5t43.5 -27.5l270 -133v248q0 44 -51 67l-279 133v-245z" />
<glyph unicode="&#xa8;" horiz-adv-x="845" d="M152 1151q0 90 92 90q47 0 68.5 -22t21.5 -68q0 -92 -90 -92q-92 0 -92 92zM510 1151q0 90 92 90q47 0 68.5 -22t21.5 -68q0 -92 -90 -92q-92 0 -92 92z" />
<glyph unicode="&#xa9;" horiz-adv-x="1433" d="M113 598q0 164 80 303.5t219 221t303 81.5q123 0 235 -48t193.5 -129.5t129.5 -193.5t48 -235t-48.5 -234.5t-130 -191.5t-193.5 -127t-234 -47t-233.5 47.5t-192.5 127.5t-128.5 191.5t-47.5 233.5zM215 598q0 -138 66 -255t181.5 -186t252.5 -69t252 69t181 186t66 255 t-66 255t-181 186t-252 69q-136 0 -251 -68.5t-182 -186t-67 -255.5zM481 473v326q0 69 47.5 116.5t116.5 47.5h141q30 0 68 -17l96 -43l-12 -90l-119 47q-23 10 -47 10h-104q-29 0 -51.5 -22t-22.5 -51v-324q0 -71 39 -117.5t86 -46.5h49q22 0 51 13l119 47l12 -93l-98 -40 q-42 -17 -68 -17h-82q-95 0 -158 74.5t-63 179.5z" />
<glyph unicode="&#xaa;" horiz-adv-x="600" d="M82 913v50q0 62 33 99.5t94 37.5h190l4 4v72q0 24 -15 37.5t-40 13.5h-59q-26 0 -47 -6l-109 -37l-12 84l90 32q32 11 78 11h78q67 0 107 -39t40 -105v-387h-68l-22 31q-40 -14 -97 -27.5t-91 -13.5q-73 0 -113.5 38t-40.5 105zM193 909q0 -24 17 -38.5t38 -14.5 q18 0 74.5 14t74.5 21l6 6v119l-4 4h-163q-18 0 -30.5 -13t-12.5 -34v-64z" />
<glyph unicode="&#xab;" horiz-adv-x="778" d="M90 551v55l293 291v-127l-166 -190l166 -193v-127zM383 551v55l293 291v-127l-166 -190l166 -193v-127z" />
<glyph unicode="&#xac;" horiz-adv-x="1075" d="M123 412v645q0 117 76 193.5t192 76.5h293q116 0 192 -76.5t76 -193.5v-645q0 -177 -103 -302.5t-255 -125.5h-39l94 -97q50 -50 118 -81t126 -31h119v-140h-111q-94 0 -186 36t-162 106l-289 289q-65 65 -103 154.5t-38 191.5zM293 399q0 -139 78 -217l59 -59h135 q84 0 150.5 77t66.5 201v658q0 56 -36 92.5t-91 36.5h-235q-55 0 -91 -36.5t-36 -92.5v-660z" />
<glyph unicode="&#xad;" horiz-adv-x="593" d="M82 537v133h430v-133h-430z" />
<glyph unicode="&#xae;" horiz-adv-x="962" d="M102 934q0 155 111.5 265t267.5 110t267.5 -110t111.5 -265q0 -154 -111.5 -261.5t-267.5 -107.5t-267.5 107.5t-111.5 261.5zM174 934q0 -128 90 -217.5t217 -89.5t217 89.5t90 217.5t-90 218.5t-217 90.5t-217 -90.5t-90 -218.5zM352 713v444h174q41 0 70 -25.5 t29 -64.5q0 -35 -17 -66l-37 -65l43 -66q27 -44 27 -75v-82h-72v82q0 14 -20 49l-39 65h-82l-6 -6v-190h-70zM422 971l6 -4h86l29 53q10 20 10 39q0 39 -45 39h-80l-6 -4v-123z" />
<glyph unicode="&#xaf;" horiz-adv-x="845" d="M137 1116v121h574v-121h-574z" />
<glyph unicode="&#xb0;" horiz-adv-x="522" d="M55 1147q0 86 60.5 145.5t146.5 59.5t145.5 -60t59.5 -145t-59.5 -145t-145.5 -60t-146.5 59.5t-60.5 145.5zM152 1145q0 -47 32 -81t78 -34t77.5 34t31.5 81q0 48 -32 82.5t-77 34.5t-77.5 -34.5t-32.5 -82.5z" />
<glyph unicode="&#xb1;" d="M98 1171v140h805v-56q0 -153 -65 -303l-410 -952h-182l440 1018q33 74 33 141l-10 12h-611z" />
<glyph unicode="&#xb2;" horiz-adv-x="1024" d="M297 121v1067h432v-1067h-432z" />
<glyph unicode="&#xb3;" horiz-adv-x="1024" d="M297 121v1067h432v-1067h-432z" />
<glyph unicode="&#xb4;" horiz-adv-x="845" d="M225 1049v96l443 182v-153z" />
<glyph unicode="&#xb5;" horiz-adv-x="964" d="M139 -338v1249h166v-680q0 -50 33.5 -84t77.5 -34q57 0 139 28l96 33l13 16v721h165v-911h-86l-49 55l-135 -41q-96 -30 -158 -30q-79 0 -125 34l-36 -356h-101z" />
<glyph unicode="&#xb6;" horiz-adv-x="968" d="M92 647q0 142 95 232t229 90h420v-1346h-144v1202l-10 13h-127l-12 -13v-1202h-142v709q-130 6 -219.5 92.5t-89.5 222.5zM233 647q0 -77 46.5 -126.5t121.5 -55.5v366q-74 -6 -121 -56.5t-47 -127.5z" />
<glyph unicode="&#xb7;" horiz-adv-x="425" d="M104 623q0 49 27.5 76.5t81.5 27.5t81.5 -27.5t27.5 -76.5t-27.5 -78t-81.5 -29t-81.5 29t-27.5 78z" />
<glyph unicode="&#xb8;" horiz-adv-x="845" d="M276 -399l154 393h90l-65 -393h-179z" />
<glyph unicode="&#xb9;" horiz-adv-x="1024" d="M297 121v1067h432v-1067h-432z" />
<glyph unicode="&#xba;" horiz-adv-x="604" d="M86 961v192q0 67 43.5 112.5t110.5 45.5h125q67 0 110 -45.5t43 -112.5v-192q0 -84 -45.5 -137.5t-116.5 -53.5h-110q-71 0 -115.5 53t-44.5 138zM197 944q0 -39 18.5 -63.5t46.5 -24.5h80q28 0 47 24.5t19 63.5v223q0 25 -17.5 42.5t-42.5 17.5h-90q-25 0 -43 -17.5 t-18 -42.5v-223z" />
<glyph unicode="&#xbb;" horiz-adv-x="778" d="M102 260v127l166 193l-166 190v127l293 -291v-55zM395 260v127l166 193l-166 190v127l293 -291v-55z" />
<glyph unicode="&#xbc;" horiz-adv-x="1024" d="M297 121v1067h432v-1067h-432z" />
<glyph unicode="&#xbd;" horiz-adv-x="1024" d="M297 121v1067h432v-1067h-432z" />
<glyph unicode="&#xbe;" horiz-adv-x="1024" d="M297 121v1067h432v-1067h-432z" />
<glyph unicode="&#xbf;" horiz-adv-x="804" d="M49 -76q0 90 45 166l137 242l185 63l12 15l18 249h134l16 -239v-107l-14 -16l-236 -78l-106 -199q-25 -48 -25 -100q0 -60 46.5 -95.5t109.5 -35.5h114q47 0 86 16l187 74l18 -133l-162 -68q-57 -24 -116 -24h-176q-115 0 -194 78.5t-79 191.5zM410 881q0 46 26.5 73 t77.5 27t75.5 -27t24.5 -73t-24.5 -72.5t-75.5 -26.5t-77.5 26.5t-26.5 72.5z" />
<glyph unicode="&#xc0;" horiz-adv-x="1024" d="M31 0l340 1294l20 17h244l20 -17l338 -1294h-168l-84 322l-14 14h-428l-14 -14l-84 -322h-170zM258 1579v154l442 -183v-96zM326 483l10 -14h354l10 14l-176 684h-24z" />
<glyph unicode="&#xc1;" horiz-adv-x="1024" d="M31 0l340 1294l20 17h244l20 -17l338 -1294h-168l-84 322l-14 14h-428l-14 -14l-84 -322h-170zM326 483l10 -14h354l10 14l-176 684h-24zM330 1454v96l442 183v-154z" />
<glyph unicode="&#xc2;" horiz-adv-x="1024" d="M31 0l340 1294l20 17h244l20 -17l338 -1294h-168l-84 322l-14 14h-428l-14 -14l-84 -322h-170zM170 1452l307 346h72l307 -346h-121l-223 193l-221 -193h-121zM326 483l10 -14h354l10 14l-176 684h-24z" />
<glyph unicode="&#xc3;" horiz-adv-x="1024" d="M31 0l340 1294l20 17h244l20 -17l338 -1294h-168l-84 322l-14 14h-428l-14 -14l-84 -322h-170zM178 1477v49q0 94 46.5 151.5t121.5 57.5q44 0 93 -23.5t84.5 -51.5t73.5 -51.5t62 -23.5q29 0 47.5 25.5t18.5 64.5v39h106v-49q0 -94 -47 -151.5t-122 -57.5 q-44 0 -92.5 23.5t-83.5 51.5t-72.5 51.5t-61.5 23.5q-29 0 -49 -26t-20 -64v-39h-105zM326 483l10 -14h354l10 14l-176 684h-24z" />
<glyph unicode="&#xc4;" horiz-adv-x="1024" d="M31 0l340 1294l20 17h244l20 -17l338 -1294h-168l-84 322l-14 14h-428l-14 -14l-84 -322h-170zM242 1561q0 90 92 90q47 0 68.5 -22t21.5 -68q0 -93 -90 -93q-92 0 -92 93zM326 483l10 -14h354l10 14l-176 684h-24zM600 1561q0 90 92 90q47 0 68.5 -22t21.5 -68 q0 -93 -90 -93q-92 0 -92 93z" />
<glyph unicode="&#xc5;" horiz-adv-x="1024" d="M31 0l340 1294l20 17h244l20 -17l338 -1294h-168l-84 322l-14 14h-428l-14 -14l-84 -322h-170zM319 1573q0 82 57.5 139t139.5 57q81 0 137 -57t56 -139q0 -79 -56.5 -136t-136.5 -57t-138.5 56t-58.5 137zM326 483l10 -14h354l10 14l-176 684h-24zM399 1571 q0 -49 35 -83t82 -34q46 0 77.5 34t31.5 83q0 50 -31.5 86.5t-77.5 36.5q-47 0 -82 -36.5t-35 -86.5z" />
<glyph unicode="&#xc6;" horiz-adv-x="1542" d="M31 0l467 1296l20 15h942v-140h-536l-13 -12v-389l13 -14h413v-138h-413l-13 -14v-452l13 -13h536v-139h-719v322l-12 14h-397l-17 -14l-114 -322h-170zM371 485l10 -14h348l12 14v686h-125z" />
<glyph unicode="&#xc7;" horiz-adv-x="999" d="M123 412v645q0 117 76 193.5t192 76.5h287q116 0 192 -76.5t76 -193.5v-66h-166v68q0 56 -36 92.5t-91 36.5h-233q-55 0 -91 -36.5t-36 -92.5v-653q0 -119 64 -201t151 -82h113q41 0 88 18l196 78l19 -139l-160 -70q-61 -26 -117 -26h-37l-61 -377h-178l145 377h-22 q-161 0 -266 125.5t-105 302.5z" />
<glyph unicode="&#xc8;" horiz-adv-x="978" d="M143 0v1311h754v-140h-571l-13 -12v-389l13 -14h450v-138h-450l-13 -14v-452l13 -13h571v-139h-754zM287 1579v154l442 -183v-96z" />
<glyph unicode="&#xc9;" horiz-adv-x="978" d="M143 0v1311h754v-140h-571l-13 -12v-389l13 -14h450v-138h-450l-13 -14v-452l13 -13h571v-139h-754zM332 1454v96l442 183v-154z" />
<glyph unicode="&#xca;" horiz-adv-x="978" d="M143 0v1311h754v-140h-571l-13 -12v-389l13 -14h450v-138h-450l-13 -14v-452l13 -13h571v-139h-754zM184 1452l308 346h71l307 -346h-120l-224 193l-221 -193h-121z" />
<glyph unicode="&#xcb;" horiz-adv-x="978" d="M143 0v1311h754v-140h-571l-13 -12v-389l13 -14h450v-138h-450l-13 -14v-452l13 -13h571v-139h-754zM258 1556q0 91 92 91q90 0 90 -91q0 -92 -90 -92q-92 0 -92 92zM616 1556q0 91 93 91q90 0 90 -91q0 -92 -90 -92q-93 0 -93 92z" />
<glyph unicode="&#xcc;" horiz-adv-x="761" d="M74 0v137h211l12 13v1013l-12 13h-211v135h614v-135h-209l-12 -13v-1013l12 -13h209v-137h-614zM135 1579v154l443 -183v-96z" />
<glyph unicode="&#xcd;" horiz-adv-x="761" d="M74 0v137h211l12 13v1013l-12 13h-211v135h614v-135h-209l-12 -13v-1013l12 -13h209v-137h-614zM193 1454v96l442 183v-154z" />
<glyph unicode="&#xce;" horiz-adv-x="761" d="M39 1452l307 346h72l307 -346h-121l-223 193l-221 -193h-121zM74 0v137h211l12 13v1013l-12 13h-211v135h614v-135h-209l-12 -13v-1013l12 -13h209v-137h-614z" />
<glyph unicode="&#xcf;" horiz-adv-x="761" d="M74 0v137h211l12 13v1013l-12 13h-211v135h614v-135h-209l-12 -13v-1013l12 -13h209v-137h-614zM111 1556q0 91 92 91q90 0 90 -91q0 -92 -90 -92q-92 0 -92 92zM469 1556q0 91 92 91q90 0 90 -91q0 -92 -90 -92q-92 0 -92 92z" />
<glyph unicode="&#xd0;" horiz-adv-x="1101" d="M12 621v133h127l13 14v543h559q116 0 192 -77t76 -194v-612q0 -177 -105 -302.5t-266 -125.5h-456v606l-13 15h-127zM322 152l12 -13h256q84 0 151.5 79.5t67.5 203.5v620q0 56 -36.5 92.5t-92.5 36.5h-346l-12 -12v-391l14 -14h229v-133h-229l-14 -15v-454z" />
<glyph unicode="&#xd1;" horiz-adv-x="1118" d="M143 0v1311h201l23 -15l458 -1073v1088h150v-1311h-201l-22 14l-457 1080v-1094h-152zM231 1477v49q0 94 46.5 151.5t121.5 57.5q44 0 93 -23.5t84.5 -51.5t74 -51.5t62.5 -23.5q29 0 47 25.5t18 64.5v39h107v-49q0 -93 -47.5 -151t-122.5 -58q-44 0 -92.5 23.5t-83 51.5 t-72 51.5t-61.5 23.5q-29 0 -49.5 -26t-20.5 -64v-39h-105z" />
<glyph unicode="&#xd2;" horiz-adv-x="1075" d="M123 412v645q0 117 76 193.5t192 76.5h293q116 0 192 -76.5t76 -193.5v-645q0 -177 -104.5 -302.5t-265.5 -125.5h-88q-161 0 -266 125.5t-105 302.5zM289 1579v154l442 -183v-96zM293 403q0 -124 66 -202t149 -78h57q84 0 150.5 78t66.5 202v656q0 56 -36 92.5t-91 36.5 h-235q-55 0 -91 -36.5t-36 -92.5v-656z" />
<glyph unicode="&#xd3;" horiz-adv-x="1075" d="M123 412v645q0 117 76 193.5t192 76.5h293q116 0 192 -76.5t76 -193.5v-645q0 -177 -104.5 -302.5t-265.5 -125.5h-88q-161 0 -266 125.5t-105 302.5zM293 403q0 -124 66 -202t149 -78h57q84 0 150.5 78t66.5 202v656q0 56 -36 92.5t-91 36.5h-235q-55 0 -91 -36.5 t-36 -92.5v-656zM346 1454v96l442 183v-154z" />
<glyph unicode="&#xd4;" horiz-adv-x="1075" d="M123 412v645q0 117 76 193.5t192 76.5h293q116 0 192 -76.5t76 -193.5v-645q0 -177 -104.5 -302.5t-265.5 -125.5h-88q-161 0 -266 125.5t-105 302.5zM195 1452l307 346h71l308 -346h-121l-223 193l-222 -193h-120zM293 403q0 -124 66 -202t149 -78h57q84 0 150.5 78 t66.5 202v656q0 56 -36 92.5t-91 36.5h-235q-55 0 -91 -36.5t-36 -92.5v-656z" />
<glyph unicode="&#xd5;" horiz-adv-x="1075" d="M123 412v645q0 117 76 193.5t192 76.5h293q116 0 192 -76.5t76 -193.5v-645q0 -177 -104.5 -302.5t-265.5 -125.5h-88q-161 0 -266 125.5t-105 302.5zM213 1477v49q0 94 46.5 151.5t121.5 57.5q44 0 93 -23.5t84.5 -51.5t73.5 -51.5t62 -23.5q29 0 47.5 25.5t18.5 64.5 v39h106v-49q0 -93 -47.5 -151t-122.5 -58q-44 0 -92.5 23.5t-83 51.5t-72 51.5t-61.5 23.5q-29 0 -49.5 -26t-20.5 -64v-39h-104zM293 403q0 -124 66 -202t149 -78h57q84 0 150.5 78t66.5 202v656q0 56 -36 92.5t-91 36.5h-235q-55 0 -91 -36.5t-36 -92.5v-656z" />
<glyph unicode="&#xd6;" horiz-adv-x="1075" d="M123 412v645q0 117 76 193.5t192 76.5h293q116 0 192 -76.5t76 -193.5v-645q0 -177 -104.5 -302.5t-265.5 -125.5h-88q-161 0 -266 125.5t-105 302.5zM268 1556q0 91 92 91q91 0 91 -91q0 -92 -91 -92q-92 0 -92 92zM293 403q0 -124 66 -202t149 -78h57q84 0 150.5 78 t66.5 202v656q0 56 -36 92.5t-91 36.5h-235q-55 0 -91 -36.5t-36 -92.5v-656zM627 1556q0 91 92 91q90 0 90 -91q0 -92 -90 -92q-92 0 -92 92z" />
<glyph unicode="&#xd7;" horiz-adv-x="780" d="M63 375l230 227l-230 229l99 99l227 -230l229 230l99 -99l-230 -227l230 -229l-96 -99l-232 230l-227 -230z" />
<glyph unicode="&#xd8;" horiz-adv-x="1075" d="M88 -37l109 189q-74 117 -74 260v645q0 117 76 193.5t192 76.5h289q84 0 151 -45l54 90h119l-97 -166q45 -67 45 -153v-641q0 -177 -104.5 -302.5t-265.5 -125.5h-88q-129 0 -228 86l-59 -107h-119zM293 403q0 -37 6 -67l455 807q-36 45 -99 45h-235q-55 0 -91 -36.5 t-36 -92.5v-656zM348 215q30 -43 73 -67.5t87 -24.5h57q84 0 150.5 78t66.5 202v582z" />
<glyph unicode="&#xd9;" horiz-adv-x="1095" d="M133 412v899h170v-905q0 -124 67 -203.5t150 -79.5h55q83 0 150.5 79.5t67.5 203.5v905h170v-899q0 -177 -105 -302.5t-266 -125.5h-88q-161 0 -266 125.5t-105 302.5zM301 1579v154l442 -183v-96z" />
<glyph unicode="&#xda;" horiz-adv-x="1095" d="M133 412v899h170v-905q0 -124 67 -203.5t150 -79.5h55q83 0 150.5 79.5t67.5 203.5v905h170v-899q0 -177 -105 -302.5t-266 -125.5h-88q-161 0 -266 125.5t-105 302.5zM358 1454v96l443 183v-154z" />
<glyph unicode="&#xdb;" horiz-adv-x="1095" d="M133 412v899h170v-905q0 -124 67 -203.5t150 -79.5h55q83 0 150.5 79.5t67.5 203.5v905h170v-899q0 -177 -105 -302.5t-266 -125.5h-88q-161 0 -266 125.5t-105 302.5zM209 1452l307 346h72l307 -346h-121l-223 193l-221 -193h-121z" />
<glyph unicode="&#xdc;" horiz-adv-x="1095" d="M133 412v899h170v-905q0 -124 67 -203.5t150 -79.5h55q83 0 150.5 79.5t67.5 203.5v905h170v-899q0 -177 -105 -302.5t-266 -125.5h-88q-161 0 -266 125.5t-105 302.5zM279 1556q0 91 92 91q90 0 90 -91q0 -92 -90 -92q-92 0 -92 92zM637 1556q0 91 92 91q90 0 90 -91 q0 -92 -90 -92q-92 0 -92 92z" />
<glyph unicode="&#xdd;" horiz-adv-x="970" d="M4 1311h182l240 -566q7 -17 26 -26.5t35 -9.5t33.5 10.5t24.5 28.5l239 563h183l-273 -625q-15 -35 -51 -67t-74 -46v-573h-170v575q-36 14 -69.5 45t-48.5 66zM324 1454v96l442 183v-154z" />
<glyph unicode="&#xde;" horiz-adv-x="1034" d="M143 0v1327h170v-221l13 -12h358q116 0 197.5 -70t81.5 -180v-37q0 -102 -52 -197l-170 -329l-24 -17h-391l-13 -14v-250h-170zM313 416l13 -15h301l139 283q25 58 25 107v32q0 66 -45.5 99.5t-116.5 33.5h-303l-13 -12v-528z" />
<glyph unicode="&#xdf;" horiz-adv-x="1021" d="M137 -369v1446q0 111 76 180.5t190 69.5h226q114 0 190 -70.5t76 -181.5q0 -104 -43 -192l-102 -207l129 -213q27 -44 37.5 -63t23 -60.5t12.5 -85.5q0 -111 -79.5 -182.5t-194.5 -71.5h-264v129h229q64 0 101.5 37t37.5 100q0 45 -51 131l-123 217h-133v129h131l101 209 q20 46 20 103q0 69 -41 106t-111 37h-122q-68 0 -109 -33.5t-41 -105.5v-1428h-166z" />
<glyph unicode="&#xe0;" horiz-adv-x="915" d="M96 231v86q0 109 56 172.5t163 63.5h291l12 12v133q0 47 -28 74t-76 27h-55q-44 0 -88 -13l-189 -57l-20 125l162 55q52 19 131 19h86q118 0 180.5 -64t62.5 -182v-682h-90l-43 55l-133 -41q-99 -30 -162 -30q-129 0 -194.5 64t-65.5 183zM217 1174v153l442 -182v-96z M262 215q0 -47 32 -74.5t77 -27.5q59 0 141 28l96 35l10 17v223l-12 12h-262q-34 0 -58 -25.5t-24 -64.5v-123z" />
<glyph unicode="&#xe1;" horiz-adv-x="915" d="M96 231v86q0 109 56 172.5t163 63.5h291l12 12v133q0 47 -28 74t-76 27h-55q-44 0 -88 -13l-189 -57l-20 125l162 55q52 19 131 19h86q118 0 180.5 -64t62.5 -182v-682h-90l-43 55l-133 -41q-99 -30 -162 -30q-129 0 -194.5 64t-65.5 183zM262 215q0 -47 32 -74.5 t77 -27.5q59 0 141 28l96 35l10 17v223l-12 12h-262q-34 0 -58 -25.5t-24 -64.5v-123zM289 1049v96l442 182v-153z" />
<glyph unicode="&#xe2;" horiz-adv-x="915" d="M96 231v86q0 109 56 172.5t163 63.5h291l12 12v133q0 47 -28 74t-76 27h-55q-44 0 -88 -13l-189 -57l-20 125l162 55q52 19 131 19h86q118 0 180.5 -64t62.5 -182v-682h-90l-43 55l-133 -41q-99 -30 -162 -30q-129 0 -194.5 64t-65.5 183zM115 1047l307 346h72l307 -346 h-121l-223 192l-221 -192h-121zM262 215q0 -47 32 -74.5t77 -27.5q59 0 141 28l96 35l10 17v223l-12 12h-262q-34 0 -58 -25.5t-24 -64.5v-123z" />
<glyph unicode="&#xe3;" horiz-adv-x="915" d="M96 231v86q0 109 56 172.5t163 63.5h291l12 12v133q0 47 -28 74t-76 27h-55q-44 0 -88 -13l-189 -57l-20 125l162 55q52 19 131 19h86q118 0 180.5 -64t62.5 -182v-682h-90l-43 55l-133 -41q-99 -30 -162 -30q-129 0 -194.5 64t-65.5 183zM139 1071v49q0 94 46.5 151.5 t121.5 57.5q44 0 93 -23.5t84.5 -51t74 -51t62.5 -23.5q29 0 47 25.5t18 64.5v39h107v-49q0 -93 -47.5 -151t-122.5 -58q-44 0 -92.5 23.5t-83.5 51t-72.5 51t-61.5 23.5q-29 0 -49 -26t-20 -64v-39h-105zM262 215q0 -47 32 -74.5t77 -27.5q59 0 141 28l96 35l10 17v223 l-12 12h-262q-34 0 -58 -25.5t-24 -64.5v-123z" />
<glyph unicode="&#xe4;" horiz-adv-x="915" d="M96 231v86q0 109 56 172.5t163 63.5h291l12 12v133q0 47 -28 74t-76 27h-55q-44 0 -88 -13l-189 -57l-20 125l162 55q52 19 131 19h86q118 0 180.5 -64t62.5 -182v-682h-90l-43 55l-133 -41q-99 -30 -162 -30q-129 0 -194.5 64t-65.5 183zM195 1188q0 90 92 90 q47 0 68.5 -22t21.5 -68q0 -92 -90 -92q-92 0 -92 92zM262 215q0 -47 32 -74.5t77 -27.5q59 0 141 28l96 35l10 17v223l-12 12h-262q-34 0 -58 -25.5t-24 -64.5v-123zM553 1188q0 90 92 90q47 0 68.5 -22t21.5 -68q0 -92 -90 -92q-92 0 -92 92z" />
<glyph unicode="&#xe5;" horiz-adv-x="915" d="M96 231v86q0 109 56 172.5t163 63.5h291l12 12v133q0 47 -28 74t-76 27h-55q-44 0 -88 -13l-189 -57l-20 125l162 55q52 19 131 19h86q118 0 180.5 -64t62.5 -182v-682h-90l-43 55l-133 -41q-99 -30 -162 -30q-129 0 -194.5 64t-65.5 183zM262 215q0 -47 32 -74.5 t77 -27.5q59 0 141 28l96 35l10 17v223l-12 12h-262q-34 0 -58 -25.5t-24 -64.5v-123zM285 1196q0 82 57 139.5t139 57.5q81 0 137 -57.5t56 -139.5q0 -79 -56.5 -135.5t-136.5 -56.5t-138 55.5t-58 136.5zM365 1194q0 -49 34.5 -83t81.5 -34q46 0 77.5 34t31.5 83 q0 50 -31.5 86.5t-77.5 36.5q-47 0 -81.5 -36.5t-34.5 -86.5z" />
<glyph unicode="&#xe6;" horiz-adv-x="1376" d="M96 231v74q0 109 55.5 171.5t163.5 62.5h265l12 12v145q0 47 -29.5 75t-77.5 28h-28q-45 0 -86 -13l-189 -63l-20 127l162 59q52 19 131 19h53q118 0 176 -74q71 74 178 74h133q118 0 192.5 -75.5t74.5 -193.5v-241h-494l-12 -12v-115q0 -78 39.5 -128t97.5 -50h31 q46 0 86 12l190 63l21 -127l-162 -57q-55 -20 -129 -20h-51q-126 0 -203 86l-125 -47q-103 -39 -195 -39q-129 0 -194.5 64t-65.5 183zM262 215q0 -47 33 -74.5t78 -27.5q57 0 139 28l102 37q-22 61 -22 129v99l-12 12h-236q-34 0 -58 -26.5t-24 -65.5v-111zM756 551l12 -12 h315l13 12v117q0 56 -36 93.5t-91 37.5h-86q-55 0 -91 -37.5t-36 -93.5v-117z" />
<glyph unicode="&#xe7;" horiz-adv-x="847" d="M119 309v367q0 117 67 184.5t185 67.5h108q71 0 123 -19l164 -61l-21 -127l-188 65q-33 13 -90 13h-68q-51 0 -82.5 -32t-31.5 -83v-391q0 -78 39.5 -129t97.5 -51h45q60 0 90 12l188 65l21 -127l-164 -61q-37 -14 -102 -18l-64 -375h-178l148 375h-7q-125 0 -202.5 88 t-77.5 237z" />
<glyph unicode="&#xe8;" horiz-adv-x="919" d="M119 313v346q0 118 74 193.5t192 75.5h154q118 0 192 -75.5t74 -193.5v-258h-508l-12 -12v-96q0 -78 39.5 -129t97.5 -51h45q41 0 82 12l194 63l21 -127l-162 -57q-55 -20 -129 -20h-74q-124 0 -202 90t-78 239zM215 1174v153l442 -182v-96zM285 535l12 -13h330l12 13 v133q0 56 -36 93.5t-91 37.5h-100q-55 0 -91 -37.5t-36 -93.5v-133z" />
<glyph unicode="&#xe9;" horiz-adv-x="919" d="M119 313v346q0 118 74 193.5t192 75.5h154q118 0 192 -75.5t74 -193.5v-258h-508l-12 -12v-96q0 -78 39.5 -129t97.5 -51h45q41 0 82 12l194 63l21 -127l-162 -57q-55 -20 -129 -20h-74q-124 0 -202 90t-78 239zM283 1049v96l442 182v-153zM285 535l12 -13h330l12 13v133 q0 56 -36 93.5t-91 37.5h-100q-55 0 -91 -37.5t-36 -93.5v-133z" />
<glyph unicode="&#xea;" horiz-adv-x="919" d="M119 313v346q0 118 74 193.5t192 75.5h154q118 0 192 -75.5t74 -193.5v-258h-508l-12 -12v-96q0 -78 39.5 -129t97.5 -51h45q41 0 82 12l194 63l21 -127l-162 -57q-55 -20 -129 -20h-74q-124 0 -202 90t-78 239zM123 1047l307 346h72l307 -346h-121l-223 192l-221 -192 h-121zM285 535l12 -13h330l12 13v133q0 56 -36 93.5t-91 37.5h-100q-55 0 -91 -37.5t-36 -93.5v-133z" />
<glyph unicode="&#xeb;" horiz-adv-x="919" d="M119 313v346q0 118 74 193.5t192 75.5h154q118 0 192 -75.5t74 -193.5v-258h-508l-12 -12v-96q0 -78 39.5 -129t97.5 -51h45q41 0 82 12l194 63l21 -127l-162 -57q-55 -20 -129 -20h-74q-124 0 -202 90t-78 239zM195 1182q0 90 92 90q47 0 68.5 -22t21.5 -68 q0 -92 -90 -92q-92 0 -92 92zM285 535l12 -13h330l12 13v133q0 56 -36 93.5t-91 37.5h-100q-55 0 -91 -37.5t-36 -93.5v-133zM553 1182q0 90 92 90q47 0 68.5 -22t21.5 -68q0 -92 -90 -92q-92 0 -92 92z" />
<glyph unicode="&#xec;" horiz-adv-x="456" d="M-68 1174v153l443 -182v-96zM145 0v911h166v-911h-166z" />
<glyph unicode="&#xed;" horiz-adv-x="456" d="M145 0v911h166v-911h-166zM145 1049v96l443 182v-153z" />
<glyph unicode="&#xee;" horiz-adv-x="456" d="M-63 1047l258 346h69l258 -346h-123l-170 192l-170 -192h-122zM145 0v911h166v-911h-166z" />
<glyph unicode="&#xef;" horiz-adv-x="456" d="M-31 1182q0 90 92 90q91 0 91 -90q0 -92 -91 -92q-92 0 -92 92zM145 0v911h166v-911h-166zM307 1182q0 90 92 90q47 0 68.5 -22t21.5 -68q0 -92 -90 -92q-92 0 -92 92z" />
<glyph unicode="&#xf0;" horiz-adv-x="923" d="M119 309v350q0 118 74 193.5t192 75.5h115l-92 143l-119 -74l-56 88l117 74l-71 113l122 78l74 -113l123 76l59 -92l-120 -74l225 -332q43 -64 43 -158v-348q0 -149 -78 -237t-203 -88h-125q-125 0 -202.5 88t-77.5 237zM285 289q0 -78 39.5 -127t97.5 -49h76 q59 0 100 49t41 127v383q0 52 -38 89.5t-89 37.5h-100q-51 0 -89 -37.5t-38 -89.5v-383z" />
<glyph unicode="&#xf1;" horiz-adv-x="956" d="M135 0v911h86l49 -53l133 41q96 29 162 29q125 0 192.5 -67t67.5 -185v-676h-166v680q0 50 -33 84.5t-77 34.5q-54 0 -139 -29l-97 -33l-12 -16v-721h-166zM158 1071v49q0 94 46.5 151.5t121.5 57.5q44 0 93 -23.5t84.5 -51t73.5 -51t62 -23.5q29 0 47.5 25.5t18.5 64.5 v39h106v-49q0 -93 -47.5 -151t-122.5 -58q-44 0 -92.5 23.5t-83 51t-72 51t-61.5 23.5q-29 0 -49.5 -26t-20.5 -64v-39h-104z" />
<glyph unicode="&#xf2;" horiz-adv-x="923" d="M119 309v350q0 118 74 193.5t192 75.5h154q118 0 192 -75.5t74 -193.5v-350q0 -149 -78 -237t-203 -88h-125q-125 0 -202.5 88t-77.5 237zM213 1174v153l442 -182v-96zM285 293q0 -83 39.5 -131.5t97.5 -48.5h78q58 0 98.5 48.5t40.5 131.5v375q0 56 -36 93.5t-91 37.5 h-100q-55 0 -91 -37.5t-36 -93.5v-375z" />
<glyph unicode="&#xf3;" horiz-adv-x="923" d="M119 309v350q0 118 74 193.5t192 75.5h154q118 0 192 -75.5t74 -193.5v-350q0 -149 -78 -237t-203 -88h-125q-125 0 -202.5 88t-77.5 237zM283 1049v96l442 182v-153zM285 293q0 -83 39.5 -131.5t97.5 -48.5h78q58 0 98.5 48.5t40.5 131.5v375q0 56 -36 93.5t-91 37.5 h-100q-55 0 -91 -37.5t-36 -93.5v-375z" />
<glyph unicode="&#xf4;" horiz-adv-x="923" d="M119 309v350q0 118 74 193.5t192 75.5h154q118 0 192 -75.5t74 -193.5v-350q0 -149 -78 -237t-203 -88h-125q-125 0 -202.5 88t-77.5 237zM121 1047l307 346h72l307 -346h-121l-223 192l-221 -192h-121zM285 293q0 -83 39.5 -131.5t97.5 -48.5h78q58 0 98.5 48.5 t40.5 131.5v375q0 56 -36 93.5t-91 37.5h-100q-55 0 -91 -37.5t-36 -93.5v-375z" />
<glyph unicode="&#xf5;" horiz-adv-x="923" d="M119 309v350q0 118 74 193.5t192 75.5h154q118 0 192 -75.5t74 -193.5v-350q0 -149 -78 -237t-203 -88h-125q-125 0 -202.5 88t-77.5 237zM137 1071v49q0 94 46.5 151.5t121.5 57.5q44 0 93 -23.5t84.5 -51t73.5 -51t62 -23.5q29 0 47.5 25.5t18.5 64.5v39h107v-49 q0 -93 -47.5 -151t-122.5 -58q-44 0 -92.5 23.5t-83.5 51t-72.5 51t-61.5 23.5q-29 0 -49 -26t-20 -64v-39h-105zM285 293q0 -83 39.5 -131.5t97.5 -48.5h78q58 0 98.5 48.5t40.5 131.5v375q0 56 -36 93.5t-91 37.5h-100q-55 0 -91 -37.5t-36 -93.5v-375z" />
<glyph unicode="&#xf6;" horiz-adv-x="923" d="M119 309v350q0 118 74 193.5t192 75.5h154q118 0 192 -75.5t74 -193.5v-350q0 -149 -78 -237t-203 -88h-125q-125 0 -202.5 88t-77.5 237zM190 1182q0 90 93 90q47 0 68.5 -22t21.5 -68q0 -92 -90 -92q-93 0 -93 92zM285 293q0 -83 39.5 -131.5t97.5 -48.5h78 q58 0 98.5 48.5t40.5 131.5v375q0 56 -36 93.5t-91 37.5h-100q-55 0 -91 -37.5t-36 -93.5v-375zM549 1182q0 90 92 90q47 0 68.5 -22t21.5 -68q0 -92 -90 -92q-92 0 -92 92z" />
<glyph unicode="&#xf7;" horiz-adv-x="1071" d="M123 317v740q0 117 76 193.5t192 76.5h268q59 0 115 -27l146 -69l-21 -139l-180 77q-42 19 -84 19h-209q-56 0 -94.5 -37t-38.5 -92v-740q0 -93 43.5 -144.5t114.5 -51.5h174q68 0 110.5 34.5t42.5 104.5v55q0 22 -10.5 49t-17.5 40t-27 45l-135 217v88h387v-127h-176 l80 -117q34 -50 51.5 -95t17.5 -106v-51q0 -114 -83 -195t-203 -81h-242q-128 0 -212.5 99t-84.5 234z" />
<glyph unicode="&#xf8;" horiz-adv-x="923" d="M74 -37l96 146q-51 82 -51 200v350q0 118 74 193.5t192 75.5h150q85 0 147 -41l41 61h127l-90 -137q45 -67 45 -156v-346q0 -149 -78 -237t-203 -88h-125q-85 0 -155 45l-43 -66h-127zM285 283l315 481q-35 35 -88 35h-100q-55 0 -91 -37.5t-36 -93.5v-375v-10zM328 156 q37 -43 94 -43h78q58 0 98.5 48.5t40.5 131.5v336z" />
<glyph unicode="&#xf9;" horiz-adv-x="954" d="M131 238v673h166v-680q0 -50 33.5 -84t77.5 -34q55 0 137 28l96 33l12 16v721h166v-911h-86l-49 53l-129 -39q-99 -30 -164 -30q-125 0 -192.5 68t-67.5 186zM219 1174v153l443 -182v-96z" />
<glyph unicode="&#xfa;" horiz-adv-x="954" d="M131 238v673h166v-680q0 -50 33.5 -84t77.5 -34q55 0 137 28l96 33l12 16v721h166v-911h-86l-49 53l-129 -39q-99 -30 -164 -30q-125 0 -192.5 68t-67.5 186zM287 1049v96l442 182v-153z" />
<glyph unicode="&#xfb;" horiz-adv-x="954" d="M131 238v673h166v-680q0 -50 33.5 -84t77.5 -34q55 0 137 28l96 33l12 16v721h166v-911h-86l-49 53l-129 -39q-99 -30 -164 -30q-125 0 -192.5 68t-67.5 186zM135 1047l307 346h72l307 -346h-121l-223 192l-221 -192h-121z" />
<glyph unicode="&#xfc;" horiz-adv-x="954" d="M131 238v673h166v-680q0 -50 33.5 -84t77.5 -34q55 0 137 28l96 33l12 16v721h166v-911h-86l-49 53l-129 -39q-99 -30 -164 -30q-125 0 -192.5 68t-67.5 186zM205 1182q0 90 92 90q47 0 68.5 -22t21.5 -68q0 -92 -90 -92q-92 0 -92 92zM563 1182q0 90 92 90 q47 0 68.5 -22t21.5 -68q0 -92 -90 -92q-92 0 -92 92z" />
<glyph unicode="&#xfd;" horiz-adv-x="843" d="M-18 -293l45 125l65 -29q69 -30 123 -30q88 0 107 67l49 160l-49 6q-11 0 -15 17l-284 888h172l219 -757h22l226 757h165l-348 -1089q-31 -97 -89 -142t-152 -45q-133 0 -232 58zM272 1049v96l443 182v-153z" />
<glyph unicode="&#xfe;" horiz-adv-x="944" d="M137 -387v1716l166 27v-492l103 35q85 29 159 29q125 0 192.5 -67t67.5 -185v-438q0 -118 -67.5 -186t-192.5 -68q-56 0 -159 30l-91 27l-12 -10v-391zM303 193l12 -17l95 -35q73 -28 139 -28q44 0 77 34t33 84v449q0 50 -33 84.5t-77 34.5q-52 0 -137 -29l-97 -35 l-12 -16v-526z" />
<glyph unicode="&#xff;" horiz-adv-x="843" d="M-18 -293l45 125l65 -29q69 -30 123 -30q88 0 107 67l49 160l-49 6q-11 0 -15 17l-284 888h172l219 -757h22l226 757h165l-348 -1089q-31 -97 -89 -142t-152 -45q-133 0 -232 58zM158 1151q0 90 92 90q47 0 68.5 -22t21.5 -68q0 -92 -90 -92q-92 0 -92 92zM516 1151 q0 90 92 90q47 0 68.5 -22t21.5 -68q0 -92 -90 -92q-92 0 -92 92z" />
<glyph unicode="&#x152;" horiz-adv-x="1552" d="M123 428v612q0 117 76 194t192 77h1079v-140h-536l-12 -12v-389l12 -14h414v-138h-414l-12 -14v-452l12 -13h536v-139h-976q-161 0 -266 125.5t-105 302.5zM293 420q0 -124 66 -202.5t149 -78.5h231l13 13v1007l-13 12h-319q-55 0 -91 -36.5t-36 -92.5v-622z" />
<glyph unicode="&#x153;" horiz-adv-x="1409" d="M119 309v350q0 118 74 193.5t192 75.5h131q120 0 191 -88q71 88 190 88h131q118 0 192 -75.5t74 -193.5v-258h-493l-13 -12v-98q0 -78 40 -128t98 -50h30q42 0 82 12l195 63l20 -127l-161 -57q-55 -20 -129 -20h-52q-130 0 -204 104q-72 -104 -205 -104h-103 q-125 0 -202.5 88t-77.5 237zM285 293q0 -83 39.5 -131.5t97.5 -48.5h61q58 0 99 48.5t41 131.5v375q0 56 -36 93.5t-91 37.5h-84q-55 0 -91 -37.5t-36 -93.5v-375zM788 535l13 -13h315l12 13v133q0 56 -36 93.5t-91 37.5h-86q-55 0 -91 -37.5t-36 -93.5v-133z" />
<glyph unicode="&#x178;" horiz-adv-x="970" d="M4 1311h182l240 -566q7 -17 26 -26.5t35 -9.5t33.5 10.5t24.5 28.5l239 563h183l-273 -625q-15 -35 -51 -67t-74 -46v-573h-170v575q-36 14 -69.5 45t-48.5 66zM213 1536q0 90 92 90q47 0 68.5 -22t21.5 -68q0 -92 -90 -92q-92 0 -92 92zM571 1536q0 90 93 90 q47 0 68.5 -22t21.5 -68q0 -92 -90 -92q-93 0 -93 92z" />
<glyph unicode="&#x2c6;" horiz-adv-x="845" d="M80 1047l307 346h72l307 -346h-121l-223 192l-221 -192h-121z" />
<glyph unicode="&#x2dc;" horiz-adv-x="845" d="M96 1071v49q0 94 46.5 151.5t121.5 57.5q44 0 93 -23.5t84.5 -51t74 -51t62.5 -23.5q29 0 47 25.5t18 64.5v39h107v-49q0 -93 -47.5 -151t-122.5 -58q-44 0 -92.5 23.5t-83.5 51t-72.5 51t-61.5 23.5q-29 0 -49 -26t-20 -64v-39h-105z" />
<glyph unicode="&#x2000;" horiz-adv-x="899" />
<glyph unicode="&#x2001;" horiz-adv-x="1798" />
<glyph unicode="&#x2002;" horiz-adv-x="899" />
<glyph unicode="&#x2003;" horiz-adv-x="1798" />
<glyph unicode="&#x2004;" horiz-adv-x="599" />
<glyph unicode="&#x2005;" horiz-adv-x="449" />
<glyph unicode="&#x2006;" horiz-adv-x="299" />
<glyph unicode="&#x2007;" horiz-adv-x="299" />
<glyph unicode="&#x2008;" horiz-adv-x="224" />
<glyph unicode="&#x2009;" horiz-adv-x="359" />
<glyph unicode="&#x200a;" horiz-adv-x="99" />
<glyph unicode="&#x2010;" horiz-adv-x="593" d="M82 537v133h430v-133h-430z" />
<glyph unicode="&#x2011;" horiz-adv-x="593" d="M82 537v133h430v-133h-430z" />
<glyph unicode="&#x2012;" horiz-adv-x="593" d="M82 537v133h430v-133h-430z" />
<glyph unicode="&#x2013;" horiz-adv-x="839" d="M82 537v133h676v-133h-676z" />
<glyph unicode="&#x2014;" horiz-adv-x="1081" d="M82 537v133h917v-133h-917z" />
<glyph unicode="&#x2018;" horiz-adv-x="352" d="M49 883l174 444h90l-84 -444h-180z" />
<glyph unicode="&#x2019;" horiz-adv-x="352" d="M70 883l86 444h178l-174 -444h-90z" />
<glyph unicode="&#x201a;" horiz-adv-x="382" d="M70 -121l86 445h178l-174 -445h-90z" />
<glyph unicode="&#x201c;" horiz-adv-x="655" d="M49 883l174 444h90l-84 -444h-180zM352 883l174 444h90l-86 -444h-178z" />
<glyph unicode="&#x201d;" horiz-adv-x="655" d="M70 883l86 444h178l-174 -444h-90zM373 883l84 444h180l-174 -444h-90z" />
<glyph unicode="&#x201e;" horiz-adv-x="686" d="M70 -121l86 445h178l-174 -445h-90zM373 -121l84 445h180l-174 -445h-90z" />
<glyph unicode="&#x2022;" horiz-adv-x="552" d="M117 602q0 73 42 114.5t120 41.5t117.5 -41t39.5 -115t-39.5 -115t-117.5 -41t-120 41.5t-42 114.5z" />
<glyph unicode="&#x2026;" horiz-adv-x="1193" d="M104 90q0 49 27.5 77t81.5 28t81.5 -28t27.5 -77t-27.5 -77.5t-81.5 -28.5t-81.5 28.5t-27.5 77.5zM489 90q0 49 27.5 77t81.5 28t81.5 -28t27.5 -77t-27.5 -77.5t-81.5 -28.5t-81.5 28.5t-27.5 77.5zM872 90q0 49 27.5 77t81.5 28t81.5 -28t27.5 -77t-27.5 -77.5 t-81.5 -28.5t-81.5 28.5t-27.5 77.5z" />
<glyph unicode="&#x202f;" horiz-adv-x="359" />
<glyph unicode="&#x2039;" horiz-adv-x="485" d="M90 551v55l293 291v-127l-166 -190l166 -193v-127z" />
<glyph unicode="&#x203a;" horiz-adv-x="485" d="M102 260v127l166 193l-166 190v127l293 -291v-55z" />
<glyph unicode="&#x205f;" horiz-adv-x="449" />
<glyph unicode="&#x20ac;" d="M39 442l24 125h130v172h-152l25 125h127v193q0 117 76 193.5t192 76.5h233q55 0 119 -27l160 -69l-19 -139l-196 77q-49 19 -84 19h-185q-55 0 -91 -36t-36 -91v-197h455l-24 -125h-431v-172h404l-25 -125h-379v-194q0 -55 35.5 -90t91.5 -35h185q38 0 84 18l196 78 l19 -139l-160 -70q-61 -26 -119 -26h-233q-116 0 -192 76.5t-76 193.5v188h-154z" />
<glyph unicode="&#x2122;" horiz-adv-x="958" d="M16 1176v71h377v-71h-143l-4 -5v-456h-82v456l-2 5h-146zM430 715v532h143l76 -350h10l76 350h142v-532h-80v428h-23l-74 -338l-10 -8h-74l-8 8l-76 340h-22v-430h-80z" />
<glyph unicode="&#x25fc;" horiz-adv-x="911" d="M0 0v911h911v-911h-911z" />
<glyph unicode="&#xfb01;" horiz-adv-x="1030" d="M14 782v129h148l12 13v172q0 118 66 185t184 67h47q58 0 141 -19l183 -43l-21 -129l-215 49q-67 13 -92 13h-18q-51 0 -80 -30t-29 -81v-184l12 -13h533v-911h-166v768l-14 14h-353l-12 -14v-768h-166v768l-12 14h-148z" />
<glyph unicode="&#xfb02;" horiz-adv-x="1040" d="M14 782v129h148l12 13v172q0 118 66 185t184 67h47q52 0 131 -9l141 -12l152 29v-1356h-166v1200l-164 12q-4 0 -43 3.5t-57 3.5h-14q-51 0 -81 -32t-30 -83v-180l12 -13h226v-129h-226l-12 -14v-768h-166v768l-12 14h-148z" />
</font>
</defs>
</svg>
